<svg width="160" height="160" viewBox="0 0 160 160" fill="none" xmlns="http://www.w3.org/2000/svg">
<path fill-rule="evenodd" clip-rule="evenodd" d="M88.5126 4.70237C85.0744 4.23918 81.5651 4 78 4C34.9218 4 0 38.9218 0 82C0 125.078 34.9218 160 78 160C121.078 160 156 125.078 156 82C156 78.4349 155.761 74.9256 155.298 71.4874C151.789 73.9179 147.94 75.8926 143.837 77.326C143.945 78.8699 144 80.4286 144 82C144 118.451 114.451 148 78 148C41.5492 148 12 118.451 12 82C12 45.5492 41.5492 16 78 16C79.5714 16 81.1301 16.0549 82.674 16.1629C84.1074 12.0602 86.0821 8.21147 88.5126 4.70237Z" fill="url(#paint0_linear_1_106)"/>
<circle cx="128" cy="32" r="32" fill="url(#paint1_linear_1_106)"/>
<defs>
<linearGradient id="paint0_linear_1_106" x1="156" y1="4" x2="0" y2="160" gradientUnits="userSpaceOnUse">
<stop stop-color="#93EFD8"/>
<stop offset="1" stop-color="#FC8DC7"/>
</linearGradient>
<linearGradient id="paint1_linear_1_106" x1="160" y1="0" x2="96" y2="64" gradientUnits="userSpaceOnUse">
<stop stop-color="#FC8DC7"/>
<stop offset="1" stop-color="#93EFD8"/>
</linearGradient>
</defs>
</svg>
