<svg width="20" height="20" viewBox="0 0 20 20" fill="none" xmlns="http://www.w3.org/2000/svg">
<path d="M11.0641 0.587797C10.6343 0.529898 10.1956 0.5 9.75 0.5C4.36522 0.5 0 4.86522 0 10.25C0 15.6348 4.36522 20 9.75 20C15.1348 20 19.5 15.6348 19.5 10.25C19.5 9.80436 19.4701 9.36571 19.4122 8.93593C18.836 9.33504 18.1865 9.63583 17.4879 9.81406C17.4959 9.95836 17.5 10.1037 17.5 10.25C17.5 14.5302 14.0302 18 9.75 18C5.46979 18 2 14.5302 2 10.25C2 5.96979 5.46979 2.5 9.75 2.5C9.89629 2.5 10.0416 2.50405 10.1859 2.51205C10.3642 1.81354 10.665 1.16403 11.0641 0.587797Z" fill="white"/>
<path d="M20 4C20 6.20914 18.2091 8 16 8C13.7909 8 12 6.20914 12 4C12 1.79086 13.7909 0 16 0C18.2091 0 20 1.79086 20 4Z" fill="white"/>
</svg>
